<svg clip-rule="evenodd" fill-rule="evenodd" stroke-linecap="round" stroke-linejoin="round" stroke-miterlimit="1.5" viewBox="0 0 91 91" xmlns="http://www.w3.org/2000/svg"><g fill="none" stroke="#ef3155"><path d="m21.747 72.64h48.674"/><path d="m24.356 71.976c-1.489.397-3.054.609-4.668.609-9.989 0-18.099-8.11-18.099-18.099s8.11-18.099 18.099-18.099" stroke-width=".95" transform="matrix(1.01654 .272381 -.272381 1.01654 16.574 -7.15696)"/><path d="m5.454 43.312c3.315-4.216 8.461-6.925 14.234-6.925 9.989 0 18.099 8.11 18.099 18.099s-8.11 18.099-18.099 18.099" stroke-width=".95" transform="matrix(1.0524 0 0 1.0524 49.7009 -3.74812)"/><path d="m5.387 43.398c3.312-4.265 8.488-7.011 14.301-7.011 9.505 0 17.308 7.342 18.043 16.66" stroke-width=".83" transform="matrix(1.20611 0 0 1.20611 28.5598 -29.2208)"/><path d="m1.949 50.879c1.674-8.263 8.985-14.492 17.739-14.492 9.989 0 18.099 8.11 18.099 18.099" stroke-width="1.18" transform="matrix(.848658 0 0 .848658 15.0674 -8.0071)"/><path d="m42.908 32.447c2.179-1.207 4.685-1.894 7.35-1.894 8.39 0 15.202 6.811 15.202 15.201" transform="translate(-4.85656 7.67998)"/></g></svg>