<svg clip-rule="evenodd" fill-rule="evenodd" stroke-linecap="round" stroke-miterlimit="10" viewBox="0 0 77 77" xmlns="http://www.w3.org/2000/svg"><g stroke="#fff" transform="matrix(.535514 0 0 .535514 -15.2384 -15.2445)"><path d="m128.9 64.2c-4.2-3.5-9.2-6.4-14.7-8.2-5.1-1.7-10.2-2.5-15.2-2.4-19 .2-36.6 12.2-43 31.2-8.1 24 4.8 50.1 28.8 58.3 4.9 1.7 9.8 2.4 14.7 2.4 19.2 0 37-12.1 43.5-31.2 4.3-12.6 2.8-25.7-3.1-36.5" fill="none" stroke-width="5"/><g fill="#fff" fill-rule="nonzero" stroke-linejoin="round"><path d="m100.9 64.1c-6.7-.4-12.9 1.2-18.4 4.1 16 1.2 28.5 14.5 28.5 30.8s-12.5 29.6-28.5 30.9c4.9 2.6 10.5 4.1 16.5 4.1 20.1 0 36.3-17 34.9-37.4-1.2-17.5-15.5-31.6-33-32.5z" stroke-width="5"/><path d="m68.4 50.5-10.2-7.9 4.3 12.2c1.9-1.5 3.9-3 5.9-4.3z" stroke-width=".75"/><path d="m45.6 78.1-12.9-.4 10.6 7.3c.6-2.3 1.4-4.6 2.3-6.9z" stroke-width=".75"/><path d="m62.5 144.2-4.3 12.2 10.2-7.9c-2-1.3-4-2.8-5.9-4.3z" stroke-width=".75"/><path d="m43.3 113.9-10.6 7.3 12.9-.4c-.9-2.2-1.7-4.5-2.3-6.9z" stroke-width=".75"/></g></g></svg>