<svg clip-rule="evenodd" fill-rule="evenodd" stroke-linejoin="round" stroke-miterlimit="1.41421" viewBox="0 0 338 338" xmlns="http://www.w3.org/2000/svg" xmlns:xlink="http://www.w3.org/1999/xlink"><linearGradient id="a" gradientTransform="matrix(.5 .866025 .866025 -.5 .250018 -.433044)" gradientUnits="userSpaceOnUse" x1="0" x2="1" y1="0" y2="0"><stop offset="0" stop-color="#ffb6e1"/><stop offset="1" stop-color="#ff9696"/></linearGradient><linearGradient id="b"><stop offset="0" stop-color="#52a64c"/><stop offset=".35" stop-color="#52a64c"/><stop offset="1" stop-color="#009345"/></linearGradient><linearGradient id="c" gradientTransform="matrix(1 0 0 -1 0 -.000027)" gradientUnits="userSpaceOnUse" x1="0" x2="1" xlink:href="#b" y1="0" y2="0"/><linearGradient id="d"><stop offset="0" stop-color="#52a64c"/><stop offset="1" stop-color="#009345"/></linearGradient><linearGradient id="e" gradientTransform="matrix(-.993031 -.117851 -.117851 .993031 .996899 .058948)" gradientUnits="userSpaceOnUse" x1="0" x2="1" xlink:href="#d" y1="0" y2="0"/><linearGradient id="f" gradientTransform="matrix(-.485275 -.874362 -.874362 .485275 .603413 .355221)" gradientUnits="userSpaceOnUse" x1="0" x2="1" xlink:href="#d" y1="0" y2="0"/><linearGradient id="g" gradientTransform="matrix(1 0 0 -1 0 .005267)" gradientUnits="userSpaceOnUse" x1="0" x2="1" xlink:href="#d" y1="0" y2="0"/><linearGradient id="h" gradientTransform="matrix(1 0 0 -1 0 -.096022)" gradientUnits="userSpaceOnUse" x1="0" x2="1" y1="0" y2="0"><stop offset="0" stop-color="#37b34a"/><stop offset=".66" stop-color="#37b34a"/><stop offset="1" stop-color="#3d843b"/></linearGradient><linearGradient id="i" gradientTransform="matrix(-.95402 .299744 .299744 .95402 .976988 -.149869)" gradientUnits="userSpaceOnUse" x1="0" x2="1" xlink:href="#d" y1="0" y2="0"/><linearGradient id="j" gradientTransform="matrix(1 0 0 -1 0 .000802)" gradientUnits="userSpaceOnUse" x1="0" x2="1" xlink:href="#d" y1="0" y2="0"/><linearGradient id="k" gradientTransform="matrix(-.701126 -.713038 -.713038 .701126 .743854 .311791)" gradientUnits="userSpaceOnUse" x1="0" x2="1" xlink:href="#d" y1="0" y2="0"/><linearGradient id="l"><stop offset="0" stop-color="#52a64c"/><stop offset=".68" stop-color="#52a64c"/><stop offset="1" stop-color="#009345"/></linearGradient><linearGradient id="m" gradientTransform="matrix(1 0 0 -1 0 -.057619)" gradientUnits="userSpaceOnUse" x1="0" x2="1" xlink:href="#l" y1="0" y2="0"/><linearGradient id="n" gradientTransform="matrix(-.41165 .911342 .911342 .41165 .706026 -.4558)" gradientUnits="userSpaceOnUse" x1="0" x2="1" xlink:href="#d" y1="0" y2="0"/><linearGradient id="o" gradientTransform="matrix(.485202 .874402 .874402 -.485202 .343625 -.583658)" gradientUnits="userSpaceOnUse" x1="0" x2="1" xlink:href="#d" y1="0" y2="0"/><linearGradient id="p" gradientTransform="matrix(1 0 0 -1 0 .001989)" gradientUnits="userSpaceOnUse" x1="0" x2="1" xlink:href="#d" y1="0" y2="0"/><linearGradient id="q" gradientTransform="matrix(1 0 0 -1 0 -.089891)" gradientUnits="userSpaceOnUse" x1="0" x2="1" y1="0" y2="0"><stop offset="0" stop-color="#37b34a"/><stop offset="1" stop-color="#3d843b"/></linearGradient><linearGradient id="r" gradientTransform="matrix(.954039 -.299683 -.299683 -.954039 .022968 .149762)" gradientUnits="userSpaceOnUse" x1="0" x2="1" xlink:href="#d" y1="0" y2="0"/><linearGradient id="s" gradientTransform="matrix(1 0 0 -1 0 -.001764)" gradientUnits="userSpaceOnUse" x1="0" x2="1" xlink:href="#b" y1="0" y2="0"/><linearGradient id="t" gradientTransform="matrix(1 0 0 -1 0 .001369)" gradientUnits="userSpaceOnUse" x1="0" x2="1" xlink:href="#d" y1="0" y2="0"/><linearGradient id="u" gradientTransform="matrix(.701246 .71292 .71292 -.701246 .130346 -.311045)" gradientUnits="userSpaceOnUse" x1="0" x2="1" xlink:href="#d" y1="0" y2="0"/><linearGradient id="v" gradientTransform="matrix(1 0 0 -1 0 -.053058)" gradientUnits="userSpaceOnUse" x1="0" x2="1" xlink:href="#l" y1="0" y2="0"/><linearGradient id="w" gradientTransform="matrix(997.065 -1091.18 1091.18 997.065 1675.05 2484.43)" gradientUnits="userSpaceOnUse" x1="0" x2="1" y1="0" y2="0"><stop offset="0" stop-color="#d11212"/><stop offset=".47" stop-color="#de281e"/><stop offset="1" stop-color="#ff633c"/></linearGradient><linearGradient id="x" gradientTransform="matrix(942.85 -666.391 666.391 942.85 1985.19 2178.24)" gradientUnits="userSpaceOnUse" x1="0" x2="1" y1="0" y2="0"><stop offset="0" stop-color="#a90000"/><stop offset=".51" stop-color="#bc0001"/><stop offset="1" stop-color="#f70005"/></linearGradient><linearGradient id="y" gradientTransform="matrix(3086.37 2697.65 -2697.65 3086.37 621.567 717.725)" gradientUnits="userSpaceOnUse" x1="0" x2="1" y1="0" y2="0"><stop offset="0" stop-color="#f54e4d"/><stop offset=".52" stop-color="#fc6099"/><stop offset="1" stop-color="#ff67b4"/></linearGradient><g transform="matrix(.0810721 0 0 .0810721 .000061907 .000061907)"><ellipse cx=".5" fill="url(#a)" rx=".5" ry=".5" transform="matrix(2908.78 -2187.44 2187.44 2908.78 629.084 3177.1)"/><g fill-rule="nonzero"><path d="m.471.367c.095 0 .206-.04.333-.143.224-.183.195-.26.195-.26s-.33-.331-.709-.096c-.234.145-.29.049-.29.049s.149.45.47.45z" fill="url(#c)" transform="matrix(-253.85714753 0 0 -253.85714753 3428.1694092 3148.0025184)"/><path d="m.594-.233c-.272-.044-.609.328-.609.328s.375.188.609.135c.34-.078.438-.466.438-.466s-.321.022-.438.003z" fill="url(#e)" transform="matrix(316.93636466 -37.613224535 37.613224535 316.93636466 2922.7245604 3384.9193746)"/><path d="m.424-.292c-.26-.145-.687-.016-.687-.016s.354.52.687.585c.317.062.757-.252.757-.252s-.393-.114-.757-.317z" fill="url(#f)" transform="matrix(214.39322707 -128.664964043 128.664964043 214.39322707 2787.5994523 3623.336232)"/><path d="m1-.199s-.226-.297-.722-.04c-.284.146-.277.741-.277.741s.266-.243.673-.321c.027-.005.052-.015.077-.029.154-.089.253-.328.249-.351z" fill="url(#g)" transform="matrix(-179.17792112 -103.448554981 103.448554981 -179.17792112 2660.2660171 3783.8224715)"/><path d="m.683.142c.324-.125.317-.374.317-.374s-.227-.126-.438-.071c-.422.112-.562.218-.562.218s.004.005.013.013c.065.065.359.334.67.214z" fill="url(#h)" transform="matrix(-248.13214295 248.13214295 -248.13214295 -248.13214295 2592.5159629 3414.5443983)"/><path d="m.463-.191c-.362-.048-.512.111-.512.111s.244.339.512.332c.432-.011.492-.471.492-.471s-.122.077-.492.028z" fill="url(#i)" transform="matrix(97.283966716 -309.63358104 309.63358104 97.283966716 2667.7243564 3579.2389745)"/><path d="m.289.2c.466.247.711-.025.711-.025s-.047-.156-.342-.373c-.339-.248-.657-.064-.657-.064s-.001.009-.001.023c0 .072.022.297.289.439z" fill="url(#j)" transform="matrix(0 294.24329095 -294.24329095 0 2936.0023488 3116.0997151)"/><path d="m.439-.356c-.357-.031-.635.19-.635.19s.182.419.635.465c.45.046.597-.328.597-.328s-.218-.295-.597-.327z" fill="url(#k)" transform="matrix(-66.432692035 -239.83074742 239.83074742 -66.432692035 3149.5580752 3113.3913796)"/><path d="m37.084-19.194c13.731 31.978 7.534 72.796-1.718 91.158l1.718 1.843c10.461-18.746 16.049-64.184 2.272-92.102z" fill="#5bba56" transform="matrix(8.2171871293 11.1972867356 11.1972867356 -8.2171871293 2148.9322747 3179.0164321)"/><path d="m.616.26c.398-.17.384-.458.384-.458s-.167-.185-.493.104c-.193.17-.507.082-.507.082s.083.164.238.254c.098.056.225.083.378.018z" fill="url(#m)" transform="matrix(-285.6668952 164.92929861 -164.92929861 -285.6668952 3495.0583516 2790.6133436)"/><path d="m.436-.577s.34.21.311.557c-.019.239-.311.539-.311.539s-.254-.433-.13-.678c.054-.106.13-.418.13-.418z" fill="url(#n)" transform="matrix(-131.446494046 291.00578836 291.00578836 131.446494046 1151.87869928 3220.558132)"/><path d="m.523-.506c.333.065.687.585.687.585s-.427.129-.687-.016c-.364-.203-.757-.317-.757-.317s.44-.314.757-.252z" fill="url(#o)" transform="matrix(214.38211595 128.682880724 128.682880724 -214.38211595 1206.30235393 3452.4055397)"/><path d="m.673.18c-.407.078-.673.32-.673.32s-.007-.594.277-.741c.496-.257.723.04.723.04.003.023-.096.262-.25.351-.024.014-.05.025-.077.03z" fill="url(#p)" transform="matrix(179.17792112 -103.448554981 -103.448554981 -179.17792112 1507.1539835 3783.4474712)"/><path d="m0-.082s.14-.106.563-.218c.211-.055.437.071.437.071s.007.249-.317.374c-.31.12-.605-.149-.67-.214-.008-.008-.013-.013-.013-.013z" fill="url(#q)" transform="matrix(248.13075406 248.13075406 248.13075406 -248.13075406 1574.0568148 3415.1971766)"/><path d="m.537-.251c.268-.007.512.331.512.331s-.15.159-.512.111c-.37-.049-.492.028-.492.028s.06-.459.492-.47z" fill="url(#r)" transform="matrix(97.264383367 309.64052549 309.64052549 -97.264383367 1402.3483441 3269.6137268)"/><path d="m0-.084s.056.096.291-.049c.378-.235.708.096.708.096s.029.078-.194.26c-.127.103-.238.143-.334.143-.322 0-.471-.45-.471-.45z" fill="url(#s)" transform="matrix(253.85575864 0 0 -253.85575864 758.24782882 3172.5164269)"/><path d="m.001-.261s.318-.185.657.063c.295.217.342.373.342.373s-.245.273-.711.025c-.267-.142-.289-.367-.289-.439 0-.014.001-.022.001-.022z" fill="url(#t)" transform="matrix(0 294.24329095 294.24329095 0 1231.36904065 3116.0997151)"/><path d="m.436-.298c.453.046.635.465.635.465s-.279.221-.635.191c-.379-.033-.597-.328-.597-.328s.147-.374.597-.328z" fill="url(#u)" transform="matrix(-66.0694973 238.67657983 238.67657983 66.0694973 1074.8758599 2902.8495445)"/><path d="m-37.084-19.194c-13.731 31.979-7.534 72.796 1.719 91.158l-1.719 1.842c-10.461-18.745-16.049-64.183-2.272-92.101z" fill="#5bba56" transform="matrix(8.217089907 -11.1973561801 -11.1973561801 -8.217089907 2018.5155037 3179.030321)"/><path d="m0-.009s.314.087.507-.083c.326-.288.493-.103.493-.103s.014.288-.384.457c-.153.065-.28.039-.378-.018-.155-.089-.238-.253-.238-.253z" fill="url(#v)" transform="matrix(284.28217187 164.13068686 164.13068686 -284.28217187 673.09637181 2791.1272329)"/><path d="m0 0c0 1.933-1.566 3.5-3.5 3.5s-3.5-1.567-3.5-3.5 1.566-3.5 3.5-3.5 3.5 1.567 3.5 3.5" fill="#53a74d" transform="matrix(13.8889 0 0 13.8889 2132.8350396 3786.0030288)"/></g><path d="m1850.22 1577.27c.52.52 172.51-156.67 172.51-156.67.68-.69 1.37-1.38 2.06-2.07 187.37-187.37 491.61-187.37 678.98 0s187.37 491.61 0 678.98c-12.7 12.71-25.95 24.56-39.66 35.54l-495.83 495.83s-65.13 61.07-150.95 61.84c-78.08.69-138.21-51.61-138.21-51.61l-541.59-541.6.45-.45c-186.93-187.4-186.74-530.17 18.88-696.97 11.6-9.41 177.21-162.3 380.53 64.19 30.13 33.56 39.7 39.97 112.83 112.99z" fill="url(#w)" transform="matrix(1.43861 0 0 1.43861 -810.82159147 -745.21874016)"/><path d="m2423.72 1184.37c327.5 0 593.39 265.89 593.39 593.39v594.77s-420.37-1.38-593.39-1.38c-327.5 0-593.39-265.89-593.39-593.39s265.89-593.39 593.39-593.39z" fill="url(#x)" transform="matrix(.40644329025 -.40644329025 .40644329025 .40644329025 -339.66099176 1785.8947116)"/><path d="m2083.34 0c1149.82 0 2083.33 933.51 2083.33 2083.33 0 1149.83-933.51 2083.34-2083.33 2083.34-1149.819 0-2083.326-933.51-2083.326-2083.34 0-1149.82 933.507-2083.33 2083.326-2083.33zm-1093.542 629.19c802.572-603.541 1944.142-441.96 2547.682 360.604 603.54 802.566 441.95 1944.146-360.61 2547.686-802.57 603.54-1944.15 441.96-2547.686-360.61-603.538-802.56-441.953-1944.14 360.614-2547.68z" fill="url(#y)"/></g></svg>