<?xml version="1.0" standalone="no"?>
<!DOCTYPE svg PUBLIC "-//W3C//DTD SVG 20010904//EN"
 "http://www.w3.org/TR/2001/REC-SVG-20010904/DTD/svg10.dtd">
<svg version="1.0" xmlns="http://www.w3.org/2000/svg"
 width="700.000000pt" height="700.000000pt" viewBox="0 0 700.000000 700.000000"
 preserveAspectRatio="xMidYMid meet">
<metadata>
Created by potrace 1.11, written by Peter Selinger 2001-2013
</metadata>
<g transform="translate(0.000000,700.000000) scale(0.100000,-0.100000)"
fill="#000000" stroke="none">
<path d="M1415 6630 c-143 -37 -231 -153 -229 -300 2 -89 19 -121 227 -412 95
-134 283 -398 418 -588 135 -190 380 -534 544 -765 165 -231 336 -472 380
-535 45 -63 148 -208 228 -322 l148 -207 -202 -283 c-110 -156 -257 -362 -326
-458 -68 -96 -329 -463 -579 -815 -250 -352 -467 -657 -482 -677 -15 -21 -42
-59 -60 -85 -19 -26 -83 -118 -144 -203 -140 -196 -153 -223 -152 -320 0 -59
5 -86 24 -125 31 -63 89 -121 149 -149 l46 -21 2095 0 2095 0 50 27 c110 58
168 152 168 271 0 94 -13 118 -193 372 -78 110 -198 279 -267 375 -68 96 -191
270 -273 385 -82 116 -162 228 -178 250 -16 22 -123 173 -238 335 -116 162
-248 348 -294 414 -47 65 -103 144 -125 176 -47 67 -247 349 -323 455 l-54 74
69 96 c37 53 86 121 109 153 23 31 297 417 609 857 312 440 581 818 597 840
88 119 507 716 526 748 88 151 20 350 -146 425 -34 16 -187 17 -2112 18 -1141
1 -2088 -2 -2105 -6z m3509 -602 c-4 -7 -107 -152 -228 -323 -122 -170 -230
-323 -242 -340 -11 -16 -92 -131 -180 -255 -88 -124 -296 -416 -463 -650 -166
-234 -306 -426 -310 -428 -5 -2 -26 22 -48 53 -21 31 -45 64 -53 75 -8 10 -87
120 -175 245 -88 125 -185 261 -216 304 -46 63 -219 306 -320 450 -14 20 -110
155 -214 301 -103 146 -204 288 -223 315 -66 93 -121 170 -151 211 -17 23 -31
44 -31 47 0 4 644 7 1431 7 1141 0 1429 -3 1423 -12z m-1279 -3250 c75 -106
143 -202 151 -213 8 -11 38 -54 68 -95 29 -41 281 -396 559 -788 279 -392 507
-715 507 -717 0 -3 -644 -5 -1430 -5 -1127 0 -1429 3 -1424 13 9 14 65 97 77
112 4 5 117 163 249 350 224 315 503 708 922 1298 93 130 173 237 177 237 3 0
68 -87 144 -192z"/>
<path d="M3768 5485 c-2 -2 -26 -7 -53 -10 -28 -3 -106 -22 -174 -41 -68 -19
-163 -40 -210 -46 -80 -10 -329 -6 -411 6 -19 3 -57 8 -85 12 -27 3 -53 8 -57
11 -20 12 5 -26 185 -278 105 -149 199 -280 207 -292 37 -54 314 -443 322
-452 5 -6 14 -2 23 10 7 11 181 254 384 540 l371 520 -73 12 c-63 10 -420 16
-429 8z"/>
<path d="M4068 1714 c-2 -1 -32 -5 -68 -9 -73 -7 -251 -34 -259 -40 -3 -1 -22
-6 -41 -9 -19 -3 -64 -12 -100 -20 -126 -29 -282 -39 -399 -24 -36 5 -80 10
-97 12 -16 2 -39 6 -50 9 -10 4 -30 8 -44 11 -14 2 -53 13 -87 24 l-63 20
-107 -151 c-60 -83 -115 -161 -123 -173 -8 -12 -41 -59 -73 -104 -32 -45 -57
-84 -54 -86 3 -3 570 -5 1864 -4 l143 0 -46 63 c-59 80 -52 71 -209 292 -111
157 -139 190 -160 191 -13 1 -26 0 -27 -2z"/>
</g>
</svg>
